<?xml version="1.0" encoding="UTF-8" standalone="no"?>
<!-- Created with Inkscape (http://www.inkscape.org/) -->

<svg
   xmlns:dc="http://purl.org/dc/elements/1.1/"
   xmlns:cc="http://creativecommons.org/ns#"
   xmlns:rdf="http://www.w3.org/1999/02/22-rdf-syntax-ns#"
   xmlns:svg="http://www.w3.org/2000/svg"
   xmlns="http://www.w3.org/2000/svg"
   xmlns:sodipodi="http://sodipodi.sourceforge.net/DTD/sodipodi-0.dtd"
   xmlns:inkscape="http://www.inkscape.org/namespaces/inkscape"
   width="661.95398"
   height="661.95416"
   viewBox="0 0 175.14199 175.14204"
   version="1.1"
   id="svg5277"
   inkscape:version="0.92.5 (2060ec1f9f, 2020-04-08)"
   sodipodi:docname="fav slice.svg">
  <defs
     id="defs5271" />
  <sodipodi:namedview
     id="base"
     pagecolor="#ffffff"
     bordercolor="#666666"
     borderopacity="1.0"
     inkscape:pageopacity="0.0"
     inkscape:pageshadow="2"
     inkscape:zoom="0.86030148"
     inkscape:cx="544.46002"
     inkscape:cy="270.27882"
     inkscape:document-units="px"
     inkscape:current-layer="g1420"
     showgrid="false"
     units="px"
     inkscape:window-width="2560"
     inkscape:window-height="1375"
     inkscape:window-x="0"
     inkscape:window-y="0"
     inkscape:window-maximized="1" />
  <metadata
     id="metadata5274">
    <rdf:RDF>
      <cc:Work
         rdf:about="">
        <dc:format>image/svg+xml</dc:format>
        <dc:type
           rdf:resource="http://purl.org/dc/dcmitype/StillImage" />
        <dc:title></dc:title>
      </cc:Work>
    </rdf:RDF>
  </metadata>
  <g
     inkscape:label="Layer 1"
     inkscape:groupmode="layer"
     id="layer1"
     transform="translate(-66.827891,-11.565507)">
    <g
       id="g1420"
       transform="matrix(0.23112915,0,0,0.23112915,-916.90439,2722.9589)"
       inkscape:export-xdpi="300"
       inkscape:export-ydpi="300">
      <path
         inkscape:connector-curvature="0"
         id="path2017"
         d="m 4635.0846,-11731.075 a 378.88334,378.88334 0 0 0 -267.1435,110.581 c 12.7113,15.867 33.3893,39.88 45.2842,53.841 13.5141,15.863 15.9747,19.08 1.2081,10.132 -14.7667,-8.948 -46.9654,-30.198 -63.4691,-40.536 -1.0181,-0.637 -1.9764,-1.233 -2.8807,-1.794 a 378.88334,378.88334 0 0 0 -19.8459,25.207 c 20.5205,15.734 50.972,37.65 68.9152,50.702 21.4276,15.586 25.4273,18.831 4.5096,12.165 -20.9172,-6.666 -67.0462,-23.351 -90.5246,-31.218 -1.0173,-0.341 -1.9399,-0.646 -2.8757,-0.956 a 378.88334,378.88334 0 0 0 -52.0605,190.759 378.88334,378.88334 0 0 0 9.4258,82.609 c 27.8402,-6.066 71.7357,-17.345 97.0499,-23.708 12.8601,-3.232 21.0392,-5.224 24.2356,-5.226 3.8579,0 0.4575,2.897 -10.7299,10.014 -20.4581,13.015 -67.2542,40.312 -90.5417,54.649 -3.1851,1.96 -5.9082,3.663 -8.3088,5.16 a 378.88334,378.88334 0 0 0 110.7872,163.236 c 25.0531,-17.798 70.4249,-53.616 95.654,-73.305 13.753,-10.733 21.6765,-16.796 23.8207,-16.727 1.892,0.06 -0.7154,4.896 -7.7875,15.51 -15.0871,22.642 -50.7206,71.897 -68.1122,97.18 -1.7751,2.58 -3.324,4.858 -4.7577,6.97 a 378.88334,378.88334 0 0 0 16.275,9.822 c 0.4554,-0.517 0.8983,-1.016 1.3864,-1.579 12.4878,-14.411 35.7802,-44.548 48.6172,-60.964 7.0202,-8.977 10.9966,-13.958 12.2084,-13.97 1.0041,-0.01 0.1104,3.392 -2.5233,10.759 -5.8121,16.258 -20.188,52.059 -27.0132,70.297 -1.7338,4.632 -2.9892,8.152 -4.0113,10.808 a 378.88334,378.88334 0 0 0 163.2088,37.349 378.88334,378.88334 0 0 0 227.6767,-76.625 c -0.4882,-1.397 -1.0057,-2.859 -1.5701,-4.414 -10.2462,-28.249 -33.8386,-83.438 -46.5749,-113.706 -7.7612,-18.444 -11.5953,-27.879 -9.3535,-27.802 1.4375,0.05 5.371,4.009 12.3682,12.008 17.9131,20.48 56.1446,67.747 76.0042,91.141 3.1165,3.671 5.7433,6.715 8.0111,9.359 a 378.88334,378.88334 0 0 0 12.86,-13.557 c -0.8371,-1.301 -1.7494,-2.701 -2.8138,-4.282 -10.6474,-15.82 -33.65,-46.178 -46.1407,-62.859 -7.8068,-10.425 -11.6149,-15.65 -9.9121,-15.695 1.0216,-0.03 4.027,1.811 9.3425,5.508 14.175,9.859 44.9746,33.09 60.7959,44.444 4.5511,3.266 7.8624,5.556 10.2333,7.328 a 378.88334,378.88334 0 0 0 71.1256,-159.46 c -24.8486,-13.535 -59.2461,-31.118 -79.9447,-41.827 -19.4934,-10.086 -27.1272,-14.225 -19.6225,-14.064 2.5016,0.05 6.6852,0.585 12.6722,1.533 20.7751,3.292 63.4989,11.649 92.0517,16.86 a 378.88334,378.88334 0 0 0 1.6743,-32.774 378.88334,378.88334 0 0 0 -52.6465,-191.863 c -26.9592,11.31 -58.3184,25.081 -78.5326,33.853 -30.1244,13.071 -36.1058,15.3 -15.8263,-2.839 16.1396,-14.437 49.0728,-41.908 73.5391,-62.673 a 378.88334,378.88334 0 0 0 -12.9321,-17.011 c -14.4296,10.815 -30.6887,23.386 -41.3385,31.546 -16.5409,12.676 -19.8818,14.966 -10.1814,0.683 7.7364,-11.391 23.7815,-33.348 35.6634,-49.902 a 378.88334,378.88334 0 0 0 -142.3215,-95.92 c -13.5289,25.184 -32.3564,63.065 -43.5374,85.276 -13.1577,26.139 -15.9806,31.078 -12.4529,7.089 3.5277,-23.989 13.4689,-77.245 17.8469,-104.239 0.013,-0.08 0.024,-0.151 0.037,-0.232 a 378.88334,378.88334 0 0 0 -96.2004,-12.651 z m -140.4102,151.763 c 1.1607,0.01 4.4058,3.135 10.1965,9.461 11.8433,12.938 34.3596,39.309 51.363,58.879 a 177.36006,177.36006 0 0 1 78.8512,-18.58 177.36006,177.36006 0 0 1 110.4924,38.845 c 9.5981,-9.307 19.53,-19.13 26.4213,-25.894 6.7461,-6.623 10.6402,-10.373 11.7986,-10.468 1.0231,-0.08 -0.084,2.681 -3.2412,8.829 -4.6378,9.034 -13.6776,25.34 -21.4529,39.487 a 177.36006,177.36006 0 0 1 53.2413,123.712 c 8.5685,1.859 16.6984,3.602 22.982,4.963 18.1811,3.936 21.6135,4.847 4.8622,5.48 -6.8582,0.26 -17.164,0.472 -28.1569,0.668 a 177.36006,177.36006 0 0 1 -4.068,30.678 c 15.1815,8.472 34.7059,18.903 46.7889,25.422 16.3716,8.832 19.4159,10.66 3.1483,6.616 -12.4053,-3.085 -36.1307,-9.608 -54.8092,-14.643 a 177.36006,177.36006 0 0 1 -138.7751,118.556 c 0.2027,3.884 0.4086,7.809 0.5702,10.962 0.9515,18.578 0.9692,22.129 -4.0201,6.125 -1.3157,-4.221 -2.9821,-9.809 -4.8223,-16.083 a 177.36006,177.36006 0 0 1 -20.9595,1.465 177.36006,177.36006 0 0 1 -14.7516,-0.738 c -3.7465,15.375 -7.7695,32.796 -10.4553,44.248 -4.2466,18.111 -5.2163,21.528 -5.5634,4.768 -0.2402,-11.611 -0.1842,-32.858 -0.1881,-51.167 a 177.36006,177.36006 0 0 1 -129.0976,-98.47 c -12.549,5.874 -25.6096,12.12 -34.661,16.414 -16.8066,7.973 -20.0821,9.345 -7.1964,-1.376 8.1187,-6.755 22.5938,-18.267 35.9053,-28.881 a 177.36006,177.36006 0 0 1 -11.3522,-62.158 177.36006,177.36006 0 0 1 72.5956,-142.853 c -9.2872,-21.407 -20.4462,-46.043 -27.5937,-62.01 -6.5971,-14.737 -9.8621,-22.279 -8.0523,-22.257 z"
         style="opacity:1;vector-effect:none;fill:#fec418;fill-opacity:1;fill-rule:evenodd;stroke:none;stroke-width:2.86500001;stroke-linecap:round;stroke-linejoin:miter;stroke-miterlimit:4;stroke-dasharray:none;stroke-dashoffset:0;stroke-opacity:1;paint-order:stroke fill markers" />
    </g>
  </g>
</svg>
