<?xml version="1.0" encoding="UTF-8" ?>
<!DOCTYPE svg PUBLIC "-//W3C//DTD SVG 1.1//EN" "http://www.w3.org/Graphics/SVG/1.1/DTD/svg11.dtd">
<svg width="256pt" height="256pt" viewBox="0 0 256 256" version="1.1" xmlns="http://www.w3.org/2000/svg">
<g id="#181d2dff">
<path fill="#181d2d" opacity="1.00" d=" M 76.95 16.00 C 86.04 10.63 97.57 8.93 107.61 12.52 C 116.33 15.61 123.12 22.49 127.98 30.16 C 132.59 22.88 138.89 16.33 147.00 13.04 C 157.34 8.78 169.56 10.38 179.05 16.04 C 180.96 17.14 179.90 19.83 177.87 19.94 C 168.91 22.33 160.30 26.87 154.29 34.08 C 162.88 31.90 172.43 31.21 180.55 35.40 C 191.09 40.70 197.08 52.00 199.47 63.14 C 199.58 64.34 200.24 66.09 198.82 66.80 C 197.67 68.14 196.26 66.30 195.26 65.72 C 189.71 60.88 182.60 57.31 175.08 57.70 C 166.90 58.04 159.60 62.55 153.78 68.02 C 168.97 75.55 179.47 91.42 180.21 108.40 C 186.05 109.79 191.61 112.44 197.71 112.57 C 198.32 115.58 198.68 118.62 198.90 121.68 C 196.86 122.84 194.38 124.30 194.16 126.90 C 193.42 133.37 192.39 140.12 188.52 145.56 C 186.46 148.62 183.43 150.83 180.18 152.51 C 180.06 159.52 180.45 166.71 178.28 173.49 C 176.21 179.49 175.53 185.84 173.94 191.97 C 171.53 201.62 168.34 211.34 162.40 219.44 C 158.34 225.04 152.47 228.88 147.10 233.10 C 140.94 237.53 134.90 242.26 128.03 245.55 C 118.16 239.46 108.70 232.72 99.79 225.29 C 92.30 218.75 88.11 209.36 85.12 200.08 C 82.05 190.75 80.81 180.97 78.33 171.50 C 76.75 165.07 77.20 158.40 77.22 151.85 C 74.62 149.79 71.94 147.70 70.15 144.85 C 66.70 139.55 65.64 133.16 65.06 126.98 C 64.79 124.39 62.39 122.78 60.25 121.73 C 60.46 118.65 60.88 115.60 61.44 112.57 C 66.88 112.41 71.96 110.42 77.09 108.84 C 77.39 91.81 87.59 75.52 102.88 67.98 C 96.22 61.77 87.48 56.73 78.06 57.63 C 70.98 58.17 64.89 62.19 59.59 66.60 C 57.88 68.49 55.47 65.90 56.38 63.96 C 58.26 54.10 62.91 44.31 71.04 38.11 C 79.57 31.40 91.21 31.39 101.30 33.91 C 95.59 26.56 86.83 22.37 78.05 19.93 C 75.99 19.77 74.95 17.09 76.95 16.00 M 88.17 16.03 C 86.83 16.16 85.64 16.89 84.41 17.38 C 94.08 21.11 103.47 27.27 108.30 36.73 C 109.32 38.13 108.08 39.46 107.24 40.53 C 98.66 37.39 89.02 34.89 80.07 38.07 C 70.85 41.24 64.94 50.03 62.08 58.96 C 66.77 56.54 71.55 53.92 76.91 53.47 C 84.16 52.54 91.40 54.86 97.63 58.43 C 101.04 60.64 103.79 63.66 106.83 66.33 C 111.38 64.72 116.16 63.70 121.00 63.59 C 130.41 63.55 140.16 62.82 149.11 66.34 C 157.18 58.38 168.19 51.82 179.96 53.73 C 185.10 53.95 189.44 56.79 193.89 59.00 C 191.07 50.32 185.48 41.75 176.65 38.35 C 167.58 34.80 157.60 37.22 148.84 40.53 C 148.20 39.55 146.69 38.68 147.42 37.32 C 151.91 27.33 161.84 21.53 171.37 17.12 C 168.90 16.38 166.43 15.28 163.84 15.22 C 154.91 13.72 145.60 16.94 139.13 23.17 C 134.90 26.83 132.29 31.83 128.96 36.22 C 128.48 36.23 127.52 36.26 127.04 36.27 C 123.44 31.49 120.55 26.05 115.78 22.25 C 108.42 15.59 97.67 13.22 88.17 16.03 M 86.95 88.22 C 88.63 87.16 90.09 85.64 92.01 85.03 C 94.74 86.16 97.00 88.16 99.24 90.05 L 99.12 89.72 C 101.47 88.17 103.60 86.26 106.16 85.04 C 109.01 85.85 111.13 88.21 113.61 89.76 C 115.41 88.43 117.21 87.11 119.01 85.79 C 119.67 85.48 120.33 85.17 120.99 84.87 C 123.37 86.43 125.69 88.07 127.99 89.76 C 130.27 88.13 132.44 86.28 134.96 85.02 C 137.79 85.86 139.91 88.14 142.32 89.76 C 144.57 88.21 146.68 86.42 149.11 85.15 C 152.33 85.39 154.28 88.97 157.52 89.53 C 159.46 87.75 161.51 85.98 163.99 85.00 C 165.80 85.72 167.31 86.97 168.94 88.01 C 162.15 76.58 149.39 68.23 135.94 68.09 L 135.12 67.65 C 130.09 67.89 125.06 67.60 120.04 67.87 C 106.59 68.78 93.78 76.57 86.95 88.22 M 83.62 94.75 C 82.65 97.39 81.98 100.13 81.42 102.88 C 83.43 104.31 85.40 105.79 87.34 107.31 C 90.04 105.72 92.41 101.71 95.85 103.55 L 95.92 103.80 C 97.66 104.85 99.32 106.05 100.92 107.32 C 102.54 106.06 104.16 104.79 105.78 103.53 C 106.51 103.16 107.24 102.81 107.98 102.47 C 110.14 104.02 112.27 105.63 114.36 107.29 C 116.59 105.65 118.80 104.00 121.03 102.36 C 123.47 103.83 125.76 105.54 127.99 107.31 C 130.21 105.52 132.49 103.80 134.95 102.36 C 137.17 104.02 139.38 105.67 141.63 107.29 C 143.74 105.59 145.89 103.96 148.07 102.36 C 150.54 103.81 152.83 105.52 155.05 107.32 C 157.20 105.67 159.36 104.03 161.52 102.40 C 164.07 103.76 166.37 105.53 168.67 107.27 C 170.59 105.78 172.52 104.31 174.51 102.91 C 173.99 100.15 173.31 97.42 172.34 94.78 C 169.10 94.03 166.63 91.70 163.99 89.85 C 162.33 91.02 160.68 92.21 159.10 93.50 C 155.38 96.46 152.70 90.74 149.35 90.16 C 146.76 91.37 144.84 94.12 141.95 94.50 C 139.54 93.17 137.41 91.42 135.15 89.86 C 132.81 91.59 130.44 93.26 128.01 94.83 C 125.54 93.29 123.16 91.62 120.85 89.86 C 118.18 91.46 115.93 94.11 112.72 94.55 C 110.59 93.03 108.64 90.96 106.17 90.10 C 104.60 90.97 103.22 92.12 101.80 93.21 C 100.87 93.73 99.92 94.25 98.99 94.78 C 96.61 93.18 94.28 91.53 91.97 89.86 C 89.31 91.68 86.87 94.07 83.62 94.75 M 106.74 107.59 C 105.57 109.40 109.96 110.87 110.64 109.26 C 109.87 108.08 108.17 107.00 106.74 107.59 M 114.99 112.15 C 117.38 113.76 119.63 115.57 121.75 117.53 C 126.87 116.28 132.19 116.47 137.32 117.58 C 141.06 113.99 145.43 111.08 150.31 109.28 C 149.67 108.70 149.02 108.14 148.35 107.61 C 145.84 108.91 143.91 111.77 141.04 112.10 C 138.78 110.82 136.82 109.09 134.76 107.53 C 132.55 109.25 130.30 110.93 127.98 112.50 C 125.65 110.93 123.40 109.25 121.18 107.53 C 119.15 109.11 117.09 110.66 114.99 112.15 M 72.46 121.53 C 70.52 127.40 70.21 134.01 72.02 139.97 C 73.74 145.49 78.53 149.47 83.94 151.17 C 88.21 152.07 92.61 152.45 96.96 151.89 C 98.22 151.74 99.47 151.59 100.73 151.44 C 106.19 150.13 111.42 147.30 114.61 142.55 C 119.35 136.54 119.89 128.45 118.72 121.16 C 116.13 119.27 113.13 118.08 110.04 117.28 C 108.76 116.99 107.48 116.70 106.21 116.42 C 102.06 115.69 97.86 115.31 93.65 115.20 C 86.18 115.11 78.55 117.12 72.46 121.53 M 140.39 121.22 C 140.01 125.18 139.57 129.20 140.38 133.14 C 141.35 138.82 144.83 143.72 149.13 147.42 C 152.67 149.78 156.73 151.21 160.93 151.82 C 162.46 151.94 163.98 152.08 165.51 152.21 C 169.99 152.12 174.64 151.80 178.69 149.70 C 183.26 147.50 186.56 143.06 187.64 138.14 C 188.84 132.84 188.31 127.27 186.98 122.04 C 183.86 118.84 179.21 117.51 175.01 116.27 C 173.46 115.86 171.87 115.62 170.29 115.33 C 166.01 115.14 161.73 115.28 157.47 115.71 C 151.57 116.66 145.30 117.52 140.39 121.22 M 124.91 122.43 C 125.92 123.29 126.95 124.14 127.98 124.99 C 129.10 124.07 130.22 123.14 131.32 122.21 C 129.18 122.26 127.05 122.33 124.91 122.43 M 128.55 129.66 C 126.41 130.00 124.98 127.71 123.31 126.70 C 123.04 130.46 122.67 134.22 121.84 137.90 C 123.90 139.44 125.95 140.99 127.98 142.57 C 130.18 140.80 132.43 139.11 134.82 137.61 C 135.91 138.39 137.03 139.14 138.13 139.93 C 136.00 135.15 136.67 129.80 135.22 124.87 C 132.98 126.44 130.93 128.29 128.55 129.66 M 105.26 153.23 C 102.03 154.52 98.52 154.60 95.14 155.25 C 96.03 157.51 99.22 158.36 100.94 160.14 C 103.78 158.47 106.79 153.66 110.27 156.79 C 112.63 153.97 114.81 150.00 118.96 149.79 C 123.01 149.42 126.72 152.04 128.21 155.74 C 130.25 152.32 133.69 149.25 137.97 149.80 C 141.80 150.04 143.90 153.63 146.16 156.23 C 149.76 154.35 152.27 158.54 155.06 160.17 C 157.14 158.50 159.22 156.81 161.68 155.73 C 158.76 154.15 155.37 153.95 152.35 152.64 C 149.05 151.33 146.12 149.27 143.48 146.91 C 142.87 147.06 141.65 147.36 141.04 147.50 C 138.93 145.96 136.86 144.39 134.80 142.79 C 132.56 144.48 130.30 146.15 127.98 147.72 C 125.65 146.13 123.37 144.45 121.09 142.80 C 115.99 146.52 111.41 151.25 105.26 153.23 M 87.24 159.89 C 89.32 158.71 91.88 157.43 93.02 155.26 C 89.00 154.84 84.95 154.50 81.04 153.39 C 81.27 156.74 84.99 157.99 87.24 159.89 M 162.77 154.75 C 162.88 155.13 163.11 155.90 163.22 156.28 C 165.16 157.45 167.01 158.75 168.85 160.06 C 171.35 158.02 174.42 156.63 176.49 154.10 C 171.92 154.47 167.35 155.70 162.77 154.75 M 81.65 161.04 C 84.46 164.82 87.77 169.95 93.01 169.97 C 98.67 169.06 104.11 165.85 107.20 160.93 C 105.07 162.30 103.18 164.03 100.89 165.13 C 98.38 163.94 96.33 162.03 94.13 160.38 C 92.09 161.95 90.19 163.75 87.89 164.95 C 85.43 164.65 83.78 162.20 81.65 161.04 M 160.44 161.70 C 158.63 162.76 157.07 164.35 155.04 164.99 C 153.62 164.39 152.30 163.61 150.93 162.93 C 152.95 165.33 155.63 167.00 158.41 168.40 C 161.21 169.38 164.39 171.04 167.25 169.29 C 170.43 167.24 172.90 164.30 175.11 161.28 C 172.78 162.47 170.84 165.14 168.02 164.87 C 165.71 163.64 163.78 161.82 161.72 160.21 C 161.40 160.58 160.76 161.33 160.44 161.70 M 125.18 166.23 C 120.91 170.41 114.51 169.57 109.10 170.64 C 104.97 171.18 101.18 173.03 97.83 175.44 C 98.86 176.22 99.90 177.01 100.93 177.80 C 103.21 176.22 105.15 173.90 107.86 173.11 C 110.27 174.31 112.26 176.16 114.36 177.80 C 116.61 176.21 118.63 174.23 121.16 173.07 C 123.75 174.13 125.75 176.18 127.99 177.81 C 130.23 176.23 132.18 174.03 134.81 173.12 C 137.34 174.15 139.28 176.19 141.44 177.80 C 143.67 176.27 145.62 174.23 148.13 173.17 C 150.83 173.84 152.75 176.27 155.05 177.75 C 156.17 176.86 157.28 175.96 158.40 175.07 C 154.79 172.48 150.59 170.83 146.16 170.40 C 140.41 169.78 133.49 169.73 129.96 164.28 C 128.27 164.69 126.38 164.78 125.18 166.23 M 91.20 180.27 C 93.25 183.92 96.12 187.09 99.68 189.30 C 105.18 192.65 109.88 197.09 114.53 201.50 C 116.60 203.74 119.99 202.99 122.71 203.40 C 121.87 198.16 116.30 196.21 114.02 191.81 C 118.47 189.00 124.00 189.41 129.04 189.22 C 133.66 189.49 138.83 189.10 142.79 191.92 C 140.81 195.23 137.37 197.23 135.20 200.38 L 135.01 200.45 C 134.82 201.19 134.44 202.68 134.25 203.43 C 136.34 203.13 138.54 203.19 140.55 202.45 C 144.35 198.92 147.56 194.68 152.02 191.90 C 153.96 190.76 156.26 190.33 158.12 189.05 C 161.04 186.69 162.91 183.37 164.79 180.18 C 163.87 179.51 162.97 178.82 162.00 178.24 C 159.44 179.27 157.67 181.75 155.06 182.73 C 154.11 182.31 153.24 181.75 152.36 181.23 C 150.98 180.25 149.78 178.62 148.11 178.26 C 145.97 179.57 144.17 181.37 141.99 182.61 C 139.02 182.38 137.31 179.10 134.56 178.23 C 132.29 179.55 130.52 181.78 128.04 182.64 C 125.49 181.92 123.71 179.53 121.41 178.24 C 118.67 179.10 116.96 182.30 114.02 182.64 C 111.74 181.27 109.70 179.55 107.55 178.00 C 105.44 179.63 103.48 181.55 101.04 182.69 C 98.37 181.82 96.38 179.54 94.08 178.00 C 93.12 178.75 92.16 179.51 91.20 180.27 Z" />
<path fill="#181d2d" opacity="1.00" d=" M 113.39 43.46 C 114.89 42.85 116.94 44.41 116.21 46.03 C 116.35 47.30 114.37 48.13 113.43 47.56 C 111.64 46.93 111.75 44.22 113.39 43.46 Z" />
<path fill="#181d2d" opacity="1.00" d=" M 120.57 50.53 C 121.08 48.70 123.95 48.87 124.41 50.68 C 125.11 52.09 123.42 53.04 122.85 54.14 C 121.70 53.29 119.48 52.30 120.57 50.53 Z" />
<path fill="#181d2d" opacity="1.00" d=" M 107.35 50.39 C 109.74 48.85 112.32 52.47 109.97 54.04 C 107.61 55.89 105.28 52.14 107.35 50.39 Z" />
<path fill="#181d2d" opacity="1.00" d=" M 144.56 189.64 C 145.28 189.46 146.71 189.11 147.42 188.93 C 148.69 191.19 147.43 192.94 145.44 194.08 C 144.85 192.79 143.01 190.94 144.56 189.64 Z" />
</g>
<g id="#64a06bff">
<path fill="#64a06b" opacity="1.00" d=" M 88.17 16.03 C 97.67 13.22 108.42 15.59 115.78 22.25 C 120.55 26.05 123.44 31.49 127.04 36.27 C 127.52 36.26 128.48 36.23 128.96 36.22 C 132.29 31.83 134.90 26.83 139.13 23.17 C 145.60 16.94 154.91 13.72 163.84 15.22 C 157.29 17.83 149.44 18.01 144.22 23.25 C 138.16 29.65 133.72 37.33 128.44 44.33 C 122.02 32.81 110.67 25.11 98.70 20.23 C 95.18 18.85 91.69 17.40 88.17 16.03 Z" />
</g>
<g id="#3e7c55ff">
<path fill="#3e7c55" opacity="1.00" d=" M 163.84 15.22 C 166.43 15.28 168.90 16.38 171.37 17.12 C 161.84 21.53 151.91 27.33 147.42 37.32 C 146.69 38.68 148.20 39.55 148.84 40.53 C 157.60 37.22 167.58 34.80 176.65 38.35 C 185.48 41.75 191.07 50.32 193.89 59.00 C 189.44 56.79 185.10 53.95 179.96 53.73 C 168.19 51.82 157.18 58.38 149.11 66.34 C 140.16 62.82 130.41 63.55 121.00 63.59 C 116.16 63.70 111.38 64.72 106.83 66.33 C 103.79 63.66 101.04 60.64 97.63 58.43 C 91.40 54.86 84.16 52.54 76.91 53.47 C 71.55 53.92 66.77 56.54 62.08 58.96 C 64.94 50.03 70.85 41.24 80.07 38.07 C 89.02 34.89 98.66 37.39 107.24 40.53 C 108.08 39.46 109.32 38.13 108.30 36.73 C 103.47 27.27 94.08 21.11 84.41 17.38 C 85.64 16.89 86.83 16.16 88.17 16.03 C 91.69 17.40 95.18 18.85 98.70 20.23 C 110.67 25.11 122.02 32.81 128.44 44.33 C 133.72 37.33 138.16 29.65 144.22 23.25 C 149.44 18.01 157.29 17.83 163.84 15.22 M 113.39 43.46 C 111.75 44.22 111.64 46.93 113.43 47.56 C 114.37 48.13 116.35 47.30 116.21 46.03 C 116.94 44.41 114.89 42.85 113.39 43.46 M 120.57 50.53 C 119.48 52.30 121.70 53.29 122.85 54.14 C 123.42 53.04 125.11 52.09 124.41 50.68 C 123.95 48.87 121.08 48.70 120.57 50.53 M 107.35 50.39 C 105.28 52.14 107.61 55.89 109.97 54.04 C 112.32 52.47 109.74 48.85 107.35 50.39 Z" />
</g>
<g id="#fbdb19ff">
<path fill="#fbdb19" opacity="1.00" d=" M 86.95 88.22 C 93.78 76.57 106.59 68.78 120.04 67.87 C 125.06 67.60 130.09 67.89 135.12 67.65 L 135.94 68.09 C 139.33 70.04 142.97 71.57 146.22 73.78 C 151.60 77.60 155.32 83.38 157.52 89.53 C 154.28 88.97 152.33 85.39 149.11 85.15 C 146.68 86.42 144.57 88.21 142.32 89.76 C 139.91 88.14 137.79 85.86 134.96 85.02 C 132.44 86.28 130.27 88.13 127.99 89.76 C 125.69 88.07 123.37 86.43 120.99 84.87 C 120.33 85.17 119.67 85.48 119.01 85.79 C 118.40 83.13 117.92 80.16 115.71 78.29 C 111.34 73.88 103.22 74.68 99.74 79.79 C 97.55 82.64 97.67 86.57 99.12 89.72 L 99.24 90.05 C 97.00 88.16 94.74 86.16 92.01 85.03 C 90.09 85.64 88.63 87.16 86.95 88.22 Z" />
<path fill="#fbdb19" opacity="1.00" d=" M 83.62 94.75 C 86.87 94.07 89.31 91.68 91.97 89.86 C 94.28 91.53 96.61 93.18 98.99 94.78 C 99.92 94.25 100.87 93.73 101.80 93.21 C 105.17 95.01 109.02 95.22 112.72 94.55 C 115.93 94.11 118.18 91.46 120.85 89.86 C 123.16 91.62 125.54 93.29 128.01 94.83 C 130.44 93.26 132.81 91.59 135.15 89.86 C 137.41 91.42 139.54 93.17 141.95 94.50 C 144.84 94.12 146.76 91.37 149.35 90.16 C 152.70 90.74 155.38 96.46 159.10 93.50 C 159.89 96.47 160.67 99.44 161.52 102.40 C 159.36 104.03 157.20 105.67 155.05 107.32 C 152.83 105.52 150.54 103.81 148.07 102.36 C 145.89 103.96 143.74 105.59 141.63 107.29 C 139.38 105.67 137.17 104.02 134.95 102.36 C 132.49 103.80 130.21 105.52 127.99 107.31 C 125.76 105.54 123.47 103.83 121.03 102.36 C 118.80 104.00 116.59 105.65 114.36 107.29 C 112.27 105.63 110.14 104.02 107.98 102.47 C 107.24 102.81 106.51 103.16 105.78 103.53 C 104.94 101.49 104.17 98.90 101.70 98.36 C 99.08 97.42 96.96 99.44 95.21 101.05 C 95.37 101.67 95.69 102.93 95.85 103.55 C 92.41 101.71 90.04 105.72 87.34 107.31 C 85.40 105.79 83.43 104.31 81.42 102.88 C 81.98 100.13 82.65 97.39 83.62 94.75 Z" />
<path fill="#fbdb19" opacity="1.00" d=" M 106.74 107.59 C 108.17 107.00 109.87 108.08 110.64 109.26 C 109.96 110.87 105.57 109.40 106.74 107.59 Z" />
<path fill="#fbdb19" opacity="1.00" d=" M 114.99 112.15 C 117.09 110.66 119.15 109.11 121.18 107.53 C 123.40 109.25 125.65 110.93 127.98 112.50 C 130.30 110.93 132.55 109.25 134.76 107.53 C 136.82 109.09 138.78 110.82 141.04 112.10 C 143.91 111.77 145.84 108.91 148.35 107.61 C 149.02 108.14 149.67 108.70 150.31 109.28 C 145.43 111.08 141.06 113.99 137.32 117.58 C 132.19 116.47 126.87 116.28 121.75 117.53 C 119.63 115.57 117.38 113.76 114.99 112.15 Z" />
<path fill="#fbdb19" opacity="1.00" d=" M 124.91 122.43 C 127.05 122.33 129.18 122.26 131.32 122.21 C 130.22 123.14 129.10 124.07 127.98 124.99 C 126.95 124.14 125.92 123.29 124.91 122.43 Z" />
<path fill="#fbdb19" opacity="1.00" d=" M 128.55 129.66 C 130.93 128.29 132.98 126.44 135.22 124.87 C 136.67 129.80 136.00 135.15 138.13 139.93 C 137.03 139.14 135.91 138.39 134.82 137.61 C 132.43 139.11 130.18 140.80 127.98 142.57 C 125.95 140.99 123.90 139.44 121.84 137.90 C 122.67 134.22 123.04 130.46 123.31 126.70 C 124.98 127.71 126.41 130.00 128.55 129.66 Z" />
<path fill="#fbdb19" opacity="1.00" d=" M 105.26 153.23 C 111.41 151.25 115.99 146.52 121.09 142.80 C 123.37 144.45 125.65 146.13 127.98 147.72 C 130.30 146.15 132.56 144.48 134.80 142.79 C 136.86 144.39 138.93 145.96 141.04 147.50 C 141.65 147.36 142.87 147.06 143.48 146.91 C 146.12 149.27 149.05 151.33 152.35 152.64 C 155.37 153.95 158.76 154.15 161.68 155.73 C 159.22 156.81 157.14 158.50 155.06 160.17 C 152.27 158.54 149.76 154.35 146.16 156.23 C 143.90 153.63 141.80 150.04 137.97 149.80 C 133.69 149.25 130.25 152.32 128.21 155.74 C 126.72 152.04 123.01 149.42 118.96 149.79 C 114.81 150.00 112.63 153.97 110.27 156.79 C 106.79 153.66 103.78 158.47 100.94 160.14 C 99.22 158.36 96.03 157.51 95.14 155.25 C 98.52 154.60 102.03 154.52 105.26 153.23 Z" />
<path fill="#fbdb19" opacity="1.00" d=" M 87.24 159.89 C 84.99 157.99 81.27 156.74 81.04 153.39 C 84.95 154.50 89.00 154.84 93.02 155.26 C 91.88 157.43 89.32 158.71 87.24 159.89 Z" />
<path fill="#fbdb19" opacity="1.00" d=" M 81.65 161.04 C 83.78 162.20 85.43 164.65 87.89 164.95 C 90.19 163.75 92.09 161.95 94.13 160.38 C 96.33 162.03 98.38 163.94 100.89 165.13 C 103.18 164.03 105.07 162.30 107.20 160.93 C 104.11 165.85 98.67 169.06 93.01 169.97 C 87.77 169.95 84.46 164.82 81.65 161.04 Z" />
<path fill="#fbdb19" opacity="1.00" d=" M 155.04 164.99 C 157.07 164.35 158.63 162.76 160.44 161.70 C 159.65 163.89 159.04 166.15 158.41 168.40 C 155.63 167.00 152.95 165.33 150.93 162.93 C 152.30 163.61 153.62 164.39 155.04 164.99 Z" />
<path fill="#fbdb19" opacity="1.00" d=" M 125.18 166.23 C 126.38 164.78 128.27 164.69 129.96 164.28 C 133.49 169.73 140.41 169.78 146.16 170.40 C 150.59 170.83 154.79 172.48 158.40 175.07 C 157.28 175.96 156.17 176.86 155.05 177.75 C 152.75 176.27 150.83 173.84 148.13 173.17 C 145.62 174.23 143.67 176.27 141.44 177.80 C 139.28 176.19 137.34 174.15 134.81 173.12 C 132.18 174.03 130.23 176.23 127.99 177.81 C 125.75 176.18 123.75 174.13 121.16 173.07 C 118.63 174.23 116.61 176.21 114.36 177.80 C 112.26 176.16 110.27 174.31 107.86 173.11 C 105.15 173.90 103.21 176.22 100.93 177.80 C 99.90 177.01 98.86 176.22 97.83 175.44 C 101.18 173.03 104.97 171.18 109.10 170.64 C 114.51 169.57 120.91 170.41 125.18 166.23 Z" />
<path fill="#fbdb19" opacity="1.00" d=" M 91.20 180.27 C 92.16 179.51 93.12 178.75 94.08 178.00 C 96.38 179.54 98.37 181.82 101.04 182.69 C 103.48 181.55 105.44 179.63 107.55 178.00 C 109.70 179.55 111.74 181.27 114.02 182.64 C 116.96 182.30 118.67 179.10 121.41 178.24 C 123.71 179.53 125.49 181.92 128.04 182.64 C 130.52 181.78 132.29 179.55 134.56 178.23 C 137.31 179.10 139.02 182.38 141.99 182.61 C 144.17 181.37 145.97 179.57 148.11 178.26 C 149.78 178.62 150.98 180.25 152.36 181.23 C 150.95 183.92 149.98 187.08 147.42 188.93 C 146.71 189.11 145.28 189.46 144.56 189.64 C 143.01 190.94 144.85 192.79 145.44 194.08 C 142.35 196.66 139.34 199.63 135.20 200.38 C 137.37 197.23 140.81 195.23 142.79 191.92 C 138.83 189.10 133.66 189.49 129.04 189.22 C 124.00 189.41 118.47 189.00 114.02 191.81 C 116.30 196.21 121.87 198.16 122.71 203.40 C 119.99 202.99 116.60 203.74 114.53 201.50 C 109.88 197.09 105.18 192.65 99.68 189.30 C 96.12 187.09 93.25 183.92 91.20 180.27 Z" />
</g>
<g id="#f8961dff">
<path fill="#f8961d" opacity="1.00" d=" M 135.94 68.09 C 149.39 68.23 162.15 76.58 168.94 88.01 C 167.31 86.97 165.80 85.72 163.99 85.00 C 161.51 85.98 159.46 87.75 157.52 89.53 C 155.32 83.38 151.60 77.60 146.22 73.78 C 142.97 71.57 139.33 70.04 135.94 68.09 Z" />
<path fill="#f8961d" opacity="1.00" d=" M 159.10 93.50 C 160.68 92.21 162.33 91.02 163.99 89.85 C 166.63 91.70 169.10 94.03 172.34 94.78 C 173.31 97.42 173.99 100.15 174.51 102.91 C 172.52 104.31 170.59 105.78 168.67 107.27 C 166.37 105.53 164.07 103.76 161.52 102.40 C 160.67 99.44 159.89 96.47 159.10 93.50 Z" />
<path fill="#f8961d" opacity="1.00" d=" M 162.77 154.75 C 167.35 155.70 171.92 154.47 176.49 154.10 C 174.42 156.63 171.35 158.02 168.85 160.06 C 167.01 158.75 165.16 157.45 163.22 156.28 C 163.11 155.90 162.88 155.13 162.77 154.75 Z" />
<path fill="#f8961d" opacity="1.00" d=" M 160.44 161.70 C 160.76 161.33 161.40 160.58 161.72 160.21 C 163.78 161.82 165.71 163.64 168.02 164.87 C 170.84 165.14 172.78 162.47 175.11 161.28 C 172.90 164.30 170.43 167.24 167.25 169.29 C 164.39 171.04 161.21 169.38 158.41 168.40 C 159.04 166.15 159.65 163.89 160.44 161.70 Z" />
<path fill="#f8961d" opacity="1.00" d=" M 155.06 182.73 C 157.67 181.75 159.44 179.27 162.00 178.24 C 162.97 178.82 163.87 179.51 164.79 180.18 C 162.91 183.37 161.04 186.69 158.12 189.05 C 156.26 190.33 153.96 190.76 152.02 191.90 C 147.56 194.68 144.35 198.92 140.55 202.45 C 138.54 203.19 136.34 203.13 134.25 203.43 C 134.44 202.68 134.82 201.19 135.01 200.45 L 135.20 200.38 C 139.34 199.63 142.35 196.66 145.44 194.08 C 147.43 192.94 148.69 191.19 147.42 188.93 C 149.98 187.08 150.95 183.92 152.36 181.23 C 153.24 181.75 154.11 182.31 155.06 182.73 Z" />
</g>
<g id="#ffffffff">
<path fill="#ffffff" opacity="1.00" d=" M 99.74 79.79 C 103.22 74.68 111.34 73.88 115.71 78.29 C 117.92 80.16 118.40 83.13 119.01 85.79 C 117.21 87.11 115.41 88.43 113.61 89.76 C 111.13 88.21 109.01 85.85 106.16 85.04 C 103.60 86.26 101.47 88.17 99.12 89.72 C 97.67 86.57 97.55 82.64 99.74 79.79 Z" />
<path fill="#ffffff" opacity="1.00" d=" M 101.80 93.21 C 103.22 92.12 104.60 90.97 106.17 90.10 C 108.64 90.96 110.59 93.03 112.72 94.55 C 109.02 95.22 105.17 95.01 101.80 93.21 Z" />
<path fill="#ffffff" opacity="1.00" d=" M 95.21 101.05 C 96.96 99.44 99.08 97.42 101.70 98.36 C 104.17 98.90 104.94 101.49 105.78 103.53 C 104.16 104.79 102.54 106.06 100.92 107.32 C 99.32 106.05 97.66 104.85 95.92 103.80 L 95.85 103.55 C 95.69 102.93 95.37 101.67 95.21 101.05 Z" />
<path fill="#ffffff" opacity="1.00" d=" M 93.65 115.20 C 97.86 115.31 102.06 115.69 106.21 116.42 C 104.81 121.31 103.40 126.20 102.17 131.14 C 100.48 138.07 97.76 144.76 96.96 151.89 C 92.61 152.45 88.21 152.07 83.94 151.17 C 85.30 147.01 86.52 142.81 87.57 138.56 C 89.45 130.74 92.50 123.21 93.65 115.20 Z" />
<path fill="#ffffff" opacity="1.00" d=" M 157.47 115.71 C 161.73 115.28 166.01 115.14 170.29 115.33 C 167.20 127.51 163.59 139.55 160.93 151.82 C 156.73 151.21 152.67 149.78 149.13 147.42 C 152.39 136.99 155.04 126.36 157.47 115.71 Z" />
<path fill="#ffffff" opacity="1.00" d=" M 175.01 116.27 C 179.21 117.51 183.86 118.84 186.98 122.04 C 188.31 127.27 188.84 132.84 187.64 138.14 C 186.56 143.06 183.26 147.50 178.69 149.70 C 174.64 151.80 169.99 152.12 165.51 152.21 C 167.97 143.44 170.23 134.61 172.95 125.93 C 173.92 122.78 174.63 119.55 175.01 116.27 Z" />
<path fill="#ffffff" opacity="1.00" d=" M 110.04 117.28 C 113.13 118.08 116.13 119.27 118.72 121.16 C 119.89 128.45 119.35 136.54 114.61 142.55 C 111.42 147.30 106.19 150.13 100.73 151.44 C 103.88 140.06 107.29 128.75 110.04 117.28 Z" />
</g>
<g id="#c8e9eeff">
<path fill="#c8e9ee" opacity="1.00" d=" M 72.46 121.53 C 78.55 117.12 86.18 115.11 93.65 115.20 C 92.50 123.21 89.45 130.74 87.57 138.56 C 86.52 142.81 85.30 147.01 83.94 151.17 C 78.53 149.47 73.74 145.49 72.02 139.97 C 70.21 134.01 70.52 127.40 72.46 121.53 Z" />
<path fill="#c8e9ee" opacity="1.00" d=" M 140.39 121.22 C 145.30 117.52 151.57 116.66 157.47 115.71 C 155.04 126.36 152.39 136.99 149.13 147.42 C 144.83 143.72 141.35 138.82 140.38 133.14 C 139.57 129.20 140.01 125.18 140.39 121.22 Z" />
<path fill="#c8e9ee" opacity="1.00" d=" M 170.29 115.33 C 171.87 115.62 173.46 115.86 175.01 116.27 C 174.63 119.55 173.92 122.78 172.95 125.93 C 170.23 134.61 167.97 143.44 165.51 152.21 C 163.98 152.08 162.46 151.94 160.93 151.82 C 163.59 139.55 167.20 127.51 170.29 115.33 Z" />
<path fill="#c8e9ee" opacity="1.00" d=" M 106.21 116.42 C 107.48 116.70 108.76 116.99 110.04 117.28 C 107.29 128.75 103.88 140.06 100.73 151.44 C 99.47 151.59 98.22 151.74 96.96 151.89 C 97.76 144.76 100.48 138.07 102.17 131.14 C 103.40 126.20 104.81 121.31 106.21 116.42 Z" />
</g>
</svg>
